<svg data-v-423bf9ae="" xmlns="http://www.w3.org/2000/svg" viewBox="0 0 482 90" class="iconLeftSlogan"><!----><!----><!----><g data-v-423bf9ae="" id="807e4139-2180-4b49-bcb7-81f373a98bb0" fill="#2F190E" transform="matrix(5.866478883325675,0,0,5.866478883325675,255.8934670258517,-20.70867100555406)"><path d="M2.30 3.71L3.12 3.71L5.40 10.56L7.70 3.71L8.29 3.71L8.30 3.71L10.15 3.71L10.15 13.51L8.29 13.51L8.29 7.35L6.76 11.89Q6.69 12.10 6.64 12.31Q6.59 12.53 6.59 12.73Q6.58 12.94 6.64 13.11Q6.71 13.29 6.87 13.40L6.87 13.40Q6.50 13.59 6.04 13.60Q5.59 13.61 5.29 13.50L5.29 13.50Q5.04 13.40 4.84 13.22Q4.63 13.05 4.48 12.83Q4.33 12.61 4.22 12.37Q4.12 12.12 4.03 11.89L4.03 11.89L2.56 7.48L2.56 13.51L0.70 13.51L0.70 5.18Q0.70 4.49 1.13 4.10Q1.55 3.71 2.30 3.71L2.30 3.71ZM11.55 9.52L11.55 3.72L13.41 3.72L13.41 9.83Q13.41 10.29 13.49 10.68Q13.57 11.06 13.75 11.33Q13.93 11.61 14.23 11.76Q14.53 11.91 14.98 11.91L14.98 11.91Q15.89 11.91 16.28 11.35Q16.67 10.79 16.67 9.79L16.67 9.79L16.67 5.42Q16.67 5.04 16.76 4.72Q16.84 4.40 17.05 4.17Q17.26 3.95 17.62 3.83Q17.98 3.71 18.52 3.72L18.52 3.72L18.52 9.52Q18.52 10.43 18.37 11.20Q18.21 11.97 17.81 12.52Q17.42 13.08 16.73 13.38Q16.04 13.69 14.99 13.69L14.99 13.69Q13.94 13.69 13.27 13.38Q12.60 13.08 12.21 12.52Q11.83 11.97 11.69 11.21Q11.55 10.44 11.55 9.52L11.55 9.52ZM21.48 3.72L21.48 3.72L23.62 3.72Q24.64 3.72 25.33 4.14Q26.01 4.56 26.38 5.21Q26.74 5.87 26.79 6.66Q26.84 7.45 26.61 8.19Q26.39 8.93 25.89 9.53Q25.40 10.14 24.67 10.42L24.67 10.42L27.12 13.52L24.84 13.52L22.12 10.08Q21.81 9.69 21.85 9.21Q21.88 8.74 22.12 8.39L22.12 8.39Q22.19 8.54 22.39 8.62Q22.58 8.71 22.83 8.75Q23.07 8.79 23.31 8.79Q23.55 8.79 23.72 8.76L23.72 8.76Q24.09 8.69 24.37 8.43Q24.64 8.16 24.77 7.81Q24.91 7.45 24.91 7.05Q24.91 6.65 24.75 6.31Q24.58 5.98 24.24 5.76Q23.90 5.54 23.37 5.54L23.37 5.54L21.78 5.54L21.78 13.52L19.92 13.52L19.92 5.45Q19.92 4.68 20.27 4.20Q20.62 3.72 21.48 3.72ZM37.23 12.08L37.23 12.08L38.33 13.51L36.11 13.51L35.85 13.19Q35.14 13.57 34.34 13.69Q33.53 13.82 32.73 13.70Q31.93 13.58 31.19 13.22Q30.44 12.85 29.85 12.24L29.85 12.24Q29.05 11.41 28.70 10.44Q28.35 9.48 28.39 8.51Q28.42 7.53 28.80 6.64Q29.18 5.74 29.85 5.05Q30.52 4.35 31.44 3.94Q32.37 3.53 33.47 3.53L33.47 3.53Q34.57 3.53 35.48 3.93Q36.39 4.34 37.04 5.03Q37.70 5.71 38.09 6.59Q38.47 7.48 38.52 8.43Q38.57 9.38 38.26 10.33Q37.95 11.27 37.23 12.08ZM35.70 10.07L36.06 10.58Q36.61 9.76 36.65 8.83Q36.68 7.91 36.30 7.13Q35.91 6.36 35.18 5.85Q34.44 5.35 33.46 5.35L33.46 5.35Q32.65 5.35 32.03 5.66Q31.42 5.98 31.01 6.48Q30.60 6.99 30.42 7.62Q30.23 8.26 30.27 8.92Q30.31 9.58 30.59 10.19Q30.87 10.79 31.42 11.23L31.42 11.23Q32.13 11.82 33.01 11.94Q33.89 12.05 34.72 11.72L34.72 11.72Q34.50 11.44 34.25 11.12Q34.01 10.81 33.73 10.60Q33.45 10.39 33.13 10.34Q32.82 10.29 32.48 10.53L32.48 10.53Q32.44 10.14 32.53 9.85Q32.62 9.56 32.80 9.38Q32.97 9.20 33.20 9.10Q33.43 9.00 33.64 8.96L33.64 8.96Q34.16 8.88 34.72 9.18Q35.28 9.48 35.70 10.07L35.70 10.07Z"></path></g><defs data-v-423bf9ae=""><linearGradient data-v-423bf9ae="" gradientTransform="rotate(25)" id="01742e65-ad54-4cdf-8d55-9c7e078518bc" x1="0%" y1="0%" x2="100%" y2="0%"><stop data-v-423bf9ae="" offset="0%" style="stop-color: rgb(169, 37, 128); stop-opacity: 1;"></stop><stop data-v-423bf9ae="" offset="100%" style="stop-color: rgb(247, 188, 0); stop-opacity: 1;"></stop></linearGradient></defs><g data-v-423bf9ae="" id="65a5cfd0-ea84-4ce7-ab7d-2bcc2aaa5f34" transform="matrix(3,0,0,3,-30,-105)" stroke="none" fill="url(#01742e65-ad54-4cdf-8d55-9c7e078518bc)"><path d="M84 35H16c-3.309 0-6 2.691-6 6v18c0 3.309 2.691 6 6 6h68c3.309 0 6-2.691 6-6V41c0-3.309-2.691-6-6-6zm-2 28H20v-3h62v3zm6-4c0 2.206-1.794 4-4 4v-4a1 1 0 00-1-1H19a1 1 0 00-1 1v4h-2c-2.206 0-4-1.794-4-4V41c0-2.206 1.794-4 4-4h68c2.206 0 4 1.794 4 4v18z"></path><path d="M83 50H19a1 1 0 00-1 1v5a1 1 0 001 1h64a1 1 0 001-1v-5a1 1 0 00-1-1zm-1 5H20v-3h62v3zM21 45c1.654 0 3-1.346 3-3s-1.346-3-3-3-3 1.346-3 3 1.346 3 3 3zm0-4c.551 0 1 .449 1 1s-.449 1-1 1-1-.449-1-1 .449-1 1-1zM79 42h2a1 1 0 000-2h-2a1 1 0 000 2z"></path></g><!----><g data-v-423bf9ae="" id="9ebb0a22-efa2-4305-933e-573fadd4897f" fill="#2F190E" transform="matrix(0.907889738653163,0,0,0.907889738653163,259.36447038585624,56.81330673543043)"><path d="M2.59 3.72L2.59 3.72L2.59 7.73L5.87 7.73L5.87 3.72L7.76 3.72L7.76 13.52L5.87 13.52L5.87 9.52L4.00 9.52Q3.77 9.52 3.53 9.46Q3.29 9.41 3.10 9.28Q2.91 9.16 2.77 8.95Q2.63 8.75 2.59 8.44L2.59 8.44L2.59 13.52L0.70 13.52L0.70 5.22Q0.70 4.83 0.86 4.54Q1.02 4.26 1.28 4.07Q1.54 3.89 1.88 3.81Q2.23 3.72 2.59 3.72ZM13.94 3.54L13.94 3.54Q16.02 3.54 17.49 5.04L17.49 5.04Q18.97 6.52 18.97 8.68L18.97 8.68Q18.97 10.82 17.51 12.28L17.51 12.28Q16.04 13.75 13.96 13.75L13.96 13.75Q11.76 13.75 10.32 12.24L10.32 12.24Q8.88 10.74 8.88 8.64L8.88 8.64Q8.88 8.43 8.90 8.18Q8.92 7.94 8.96 7.67Q9.00 7.41 9.07 7.16Q9.14 6.92 9.25 6.71L9.25 6.71Q9.48 6.26 9.88 5.98Q10.29 5.70 10.74 5.60Q11.20 5.50 11.65 5.58Q12.11 5.66 12.45 5.89Q12.78 6.13 12.93 6.55Q13.08 6.96 12.94 7.52L12.94 7.52Q12.67 7.20 12.29 7.11Q11.90 7.03 11.55 7.20Q11.20 7.36 10.96 7.78Q10.72 8.20 10.75 8.89L10.75 8.89Q10.81 10.35 11.90 11.23L11.90 11.23Q12.80 11.97 13.96 11.97L13.96 11.97Q15.26 11.97 16.18 11.02L16.18 11.02Q17.11 10.05 17.11 8.67L17.11 8.67Q17.11 7.28 16.18 6.31L16.18 6.31Q15.23 5.36 13.92 5.36L13.92 5.36Q13.30 5.36 12.80 5.54L12.80 5.54Q12.54 5.32 12.20 5.19Q11.86 5.07 11.47 5.05Q11.09 5.04 10.70 5.14Q10.32 5.24 9.98 5.45L9.98 5.45Q10.57 4.72 11.40 4.23L11.40 4.23Q12.59 3.54 13.94 3.54ZM21.69 3.71L22.51 3.71L24.79 10.56L27.09 3.71L27.68 3.71L27.69 3.71L29.54 3.71L29.54 13.51L27.68 13.51L27.68 7.35L26.15 11.89Q26.08 12.10 26.03 12.31Q25.98 12.53 25.98 12.73Q25.97 12.94 26.03 13.11Q26.10 13.29 26.26 13.40L26.26 13.40Q25.89 13.59 25.43 13.60Q24.98 13.61 24.68 13.50L24.68 13.50Q24.43 13.40 24.23 13.22Q24.02 13.05 23.87 12.83Q23.72 12.61 23.61 12.37Q23.51 12.12 23.42 11.89L23.42 11.89L21.95 7.48L21.95 13.51L20.09 13.51L20.09 5.18Q20.09 4.49 20.52 4.10Q20.94 3.71 21.69 3.71L21.69 3.71ZM32.55 3.72L36.58 3.72L36.58 5.56L32.80 5.56L32.80 7.73L36.58 7.73Q36.57 8.05 36.48 8.37Q36.40 8.69 36.22 8.95Q36.04 9.20 35.75 9.36Q35.46 9.52 35.04 9.52L35.04 9.52L32.80 9.52L32.80 11.69L36.58 11.69L36.58 13.52L30.94 13.52L30.94 5.42Q30.94 4.61 31.40 4.17Q31.85 3.72 32.55 3.72L32.55 3.72ZM47.01 6.47L47.01 6.47Q46.75 5.95 46.38 5.67Q46.02 5.39 45.65 5.29Q45.28 5.19 44.93 5.26Q44.59 5.33 44.37 5.50Q44.14 5.67 44.09 5.91Q44.03 6.15 44.23 6.40L44.23 6.40Q44.49 6.73 44.98 7.13Q45.47 7.53 46.00 7.98Q46.52 8.43 47.00 8.90Q47.47 9.38 47.70 9.87L47.70 9.87Q47.98 10.50 47.94 11.19Q47.89 11.89 47.54 12.46Q47.18 13.03 46.52 13.41Q45.86 13.78 44.93 13.78L44.93 13.78Q44.37 13.78 43.83 13.60Q43.29 13.43 42.81 13.11Q42.34 12.80 41.94 12.36Q41.54 11.93 41.27 11.40L41.27 11.40L42.74 10.32Q42.87 10.58 43.06 10.84Q43.26 11.09 43.50 11.31Q43.74 11.52 44.00 11.68Q44.25 11.84 44.49 11.91L44.49 11.91Q44.91 12.03 45.28 11.94Q45.65 11.86 45.86 11.63Q46.07 11.40 46.07 11.05Q46.07 10.71 45.75 10.30L45.75 10.30Q45.40 9.87 44.81 9.41Q44.23 8.95 43.65 8.43Q43.08 7.91 42.66 7.31Q42.24 6.71 42.24 5.99L42.24 5.99Q42.24 5.45 42.46 4.98Q42.69 4.52 43.06 4.20Q43.43 3.88 43.92 3.70Q44.41 3.51 44.94 3.51L44.94 3.51Q45.61 3.51 46.19 3.70Q46.77 3.89 47.14 4.24L47.14 4.24Q47.40 4.48 47.54 4.77Q47.68 5.07 47.68 5.37Q47.68 5.67 47.52 5.96Q47.36 6.24 47.01 6.47ZM50.75 3.72L54.78 3.72L54.78 5.56L51.00 5.56L51.00 7.73L54.78 7.73Q54.77 8.05 54.68 8.37Q54.60 8.69 54.42 8.95Q54.24 9.20 53.95 9.36Q53.66 9.52 53.24 9.52L53.24 9.52L51.00 9.52L51.00 11.69L54.78 11.69L54.78 13.52L49.14 13.52L49.14 5.42Q49.14 4.61 49.60 4.17Q50.05 3.72 50.75 3.72L50.75 3.72ZM57.74 3.72L57.74 3.72L59.88 3.72Q60.90 3.72 61.59 4.14Q62.27 4.56 62.64 5.21Q63.00 5.87 63.05 6.66Q63.10 7.45 62.87 8.19Q62.65 8.93 62.15 9.53Q61.66 10.14 60.93 10.42L60.93 10.42L63.38 13.52L61.10 13.52L58.38 10.08Q58.07 9.69 58.11 9.21Q58.14 8.74 58.38 8.39L58.38 8.39Q58.45 8.54 58.65 8.62Q58.84 8.71 59.09 8.75Q59.33 8.79 59.57 8.79Q59.81 8.79 59.98 8.76L59.98 8.76Q60.35 8.69 60.63 8.43Q60.90 8.16 61.03 7.81Q61.17 7.45 61.17 7.05Q61.17 6.65 61.01 6.31Q60.84 5.98 60.50 5.76Q60.16 5.54 59.63 5.54L59.63 5.54L58.04 5.54L58.04 13.52L56.18 13.52L56.18 5.45Q56.18 4.68 56.53 4.20Q56.88 3.72 57.74 3.72ZM67.87 13.52L64.43 3.75L66.33 3.75L68.78 10.70L70.67 5.46Q71.06 4.38 71.69 4.01Q72.32 3.64 73.19 3.75L73.19 3.75L69.66 13.52L67.87 13.52ZM76.23 3.72L76.23 13.52L74.38 13.52L74.38 5.19Q74.38 4.49 74.89 4.10Q75.39 3.71 76.23 3.72L76.23 3.72ZM85.72 7.07L85.72 7.07Q85.53 6.55 85.11 6.19Q84.69 5.82 84.15 5.62Q83.61 5.42 83.01 5.37Q82.40 5.32 81.87 5.43L81.87 5.43Q81.30 5.56 80.84 5.86Q80.39 6.16 80.07 6.59Q79.76 7.01 79.59 7.53Q79.42 8.05 79.42 8.61L79.42 8.61Q79.42 9.66 79.87 10.40Q80.32 11.13 81.00 11.52Q81.69 11.91 82.50 11.94Q83.31 11.97 84.04 11.63L84.04 11.63Q84.67 11.35 85.46 10.54L85.46 10.54L86.66 11.84Q86.18 12.33 85.74 12.68Q85.29 13.03 84.81 13.26Q84.32 13.48 83.78 13.59Q83.24 13.71 82.61 13.71L82.61 13.71Q81.48 13.71 80.61 13.34Q79.74 12.98 79.13 12.37Q78.51 11.76 78.16 10.97Q77.80 10.18 77.69 9.32Q77.57 8.47 77.73 7.62Q77.88 6.78 78.29 6.05L78.29 6.05Q78.68 5.36 79.18 4.89Q79.67 4.42 80.26 4.14Q80.84 3.85 81.49 3.72Q82.14 3.60 82.84 3.58L82.84 3.58Q83.33 3.58 83.87 3.68Q84.41 3.77 84.89 3.96Q85.37 4.14 85.75 4.44Q86.13 4.73 86.28 5.12Q86.44 5.52 86.32 6.00Q86.21 6.48 85.72 7.07ZM89.53 3.72L93.56 3.72L93.56 5.56L89.78 5.56L89.78 7.73L93.56 7.73Q93.55 8.05 93.46 8.37Q93.38 8.69 93.20 8.95Q93.02 9.20 92.73 9.36Q92.44 9.52 92.02 9.52L92.02 9.52L89.78 9.52L89.78 11.69L93.56 11.69L93.56 13.52L87.92 13.52L87.92 5.42Q87.92 4.61 88.38 4.17Q88.83 3.72 89.53 3.72L89.53 3.72ZM98.32 13.52L101.61 5.03Q101.89 4.28 102.45 3.95Q103.00 3.61 103.96 3.78L103.96 3.78L107.72 13.52L105.78 13.52L105.03 11.52Q104.61 11.52 104.12 11.52Q103.63 11.51 103.23 11.58Q102.83 11.65 102.61 11.82Q102.38 12.00 102.49 12.38L102.49 12.38Q101.99 12.24 101.73 11.95Q101.47 11.66 101.42 11.34Q101.36 11.02 101.49 10.70Q101.61 10.39 101.86 10.18L101.86 10.18Q102.10 9.97 102.40 9.88Q102.70 9.79 103.03 9.75Q103.36 9.72 103.70 9.72Q104.03 9.73 104.34 9.73L104.34 9.73L103.03 6.37Q102.58 7.50 102.24 8.39Q101.89 9.28 101.58 10.09Q101.26 10.89 100.95 11.71Q100.63 12.53 100.25 13.52L100.25 13.52L98.32 13.52ZM107.23 5.57L107.23 3.72L113.93 3.72Q113.93 4.16 113.81 4.50Q113.68 4.84 113.47 5.08Q113.26 5.32 112.99 5.45Q112.71 5.57 112.41 5.57L112.41 5.57L111.29 5.57L111.29 13.52L109.40 13.52L109.40 5.57L107.23 5.57ZM121.46 13.65L121.46 13.65Q120.78 13.65 120.20 13.48Q119.63 13.30 119.25 12.94Q118.87 12.59 118.74 12.05Q118.61 11.51 118.82 10.79L118.82 10.79Q118.99 11.10 119.26 11.33Q119.53 11.56 119.87 11.71Q120.20 11.86 120.57 11.93Q120.93 12.00 121.28 11.98L121.28 11.98Q122.28 11.96 122.81 11.47Q123.34 10.99 123.34 9.98L123.34 9.98Q123.24 10.23 123.00 10.43Q122.77 10.63 122.47 10.76Q122.18 10.89 121.87 10.96Q121.56 11.03 121.31 11.05L121.31 11.05Q120.78 11.07 120.27 10.91Q119.76 10.74 119.34 10.30L119.34 10.30Q118.72 9.69 118.72 8.44L118.72 8.44L118.72 3.72L120.48 3.72Q120.48 3.96 120.48 4.36Q120.47 4.76 120.47 5.24Q120.47 5.71 120.47 6.22Q120.47 6.73 120.48 7.19Q120.50 7.64 120.53 8.00Q120.55 8.36 120.60 8.53L120.60 8.53Q120.71 8.96 121.01 9.19Q121.31 9.42 121.67 9.41L121.67 9.41Q121.91 9.41 122.12 9.33Q122.33 9.25 122.49 9.12Q122.65 8.99 122.75 8.81Q122.84 8.64 122.84 8.43L122.84 8.43Q123.03 8.48 123.15 8.61Q123.27 8.74 123.34 8.92L123.34 8.92L123.34 3.72L125.13 3.72L125.13 10.07Q125.13 11.70 124.20 12.68Q123.27 13.65 121.46 13.65ZM131.32 3.54L131.32 3.54Q133.39 3.54 134.86 5.04L134.86 5.04Q136.35 6.52 136.35 8.68L136.35 8.68Q136.35 10.82 134.89 12.28L134.89 12.28Q133.42 13.75 131.33 13.75L131.33 13.75Q129.14 13.75 127.69 12.24L127.69 12.24Q126.25 10.74 126.25 8.64L126.25 8.64Q126.25 8.43 126.27 8.18Q126.29 7.94 126.34 7.67Q126.38 7.41 126.45 7.16Q126.52 6.92 126.63 6.71L126.63 6.71Q126.85 6.26 127.26 5.98Q127.67 5.70 128.12 5.60Q128.58 5.50 129.03 5.58Q129.49 5.66 129.82 5.89Q130.16 6.13 130.31 6.55Q130.45 6.96 130.31 7.52L130.31 7.52Q130.05 7.20 129.66 7.11Q129.28 7.03 128.93 7.20Q128.58 7.36 128.34 7.78Q128.10 8.20 128.13 8.89L128.13 8.89Q128.18 10.35 129.28 11.23L129.28 11.23Q130.17 11.97 131.33 11.97L131.33 11.97Q132.64 11.97 133.56 11.02L133.56 11.02Q134.48 10.05 134.48 8.67L134.48 8.67Q134.48 7.28 133.56 6.31L133.56 6.31Q132.61 5.36 131.29 5.36L131.29 5.36Q130.68 5.36 130.17 5.54L130.17 5.54Q129.92 5.32 129.58 5.19Q129.23 5.07 128.85 5.05Q128.46 5.04 128.08 5.14Q127.69 5.24 127.36 5.45L127.36 5.45Q127.95 4.72 128.77 4.23L128.77 4.23Q129.96 3.54 131.32 3.54ZM137.47 9.52L137.47 3.72L139.33 3.72L139.33 9.83Q139.33 10.29 139.41 10.68Q139.48 11.06 139.66 11.33Q139.85 11.61 140.15 11.76Q140.45 11.91 140.90 11.91L140.90 11.91Q141.81 11.91 142.20 11.35Q142.59 10.79 142.59 9.79L142.59 9.79L142.59 5.42Q142.59 5.04 142.67 4.72Q142.76 4.40 142.97 4.17Q143.18 3.95 143.54 3.83Q143.89 3.71 144.44 3.72L144.44 3.72L144.44 9.52Q144.44 10.43 144.28 11.20Q144.13 11.97 143.73 12.52Q143.33 13.08 142.65 13.38Q141.96 13.69 140.91 13.69L140.91 13.69Q139.86 13.69 139.19 13.38Q138.52 13.08 138.13 12.52Q137.75 11.97 137.61 11.21Q137.47 10.44 137.47 9.52L137.47 9.52ZM147.39 3.72L147.39 3.72L149.53 3.72Q150.56 3.72 151.24 4.14Q151.93 4.56 152.29 5.21Q152.66 5.87 152.71 6.66Q152.75 7.45 152.53 8.19Q152.31 8.93 151.81 9.53Q151.31 10.14 150.58 10.42L150.58 10.42L153.03 13.52L150.75 13.52L148.04 10.08Q147.73 9.69 147.76 9.21Q147.80 8.74 148.04 8.39L148.04 8.39Q148.11 8.54 148.30 8.62Q148.50 8.71 148.74 8.75Q148.99 8.79 149.23 8.79Q149.46 8.79 149.63 8.76L149.63 8.76Q150.01 8.69 150.28 8.43Q150.56 8.16 150.69 7.81Q150.82 7.45 150.82 7.05Q150.82 6.65 150.66 6.31Q150.50 5.98 150.16 5.76Q149.81 5.54 149.28 5.54L149.28 5.54L147.70 5.54L147.70 13.52L145.84 13.52L145.84 5.45Q145.84 4.68 146.19 4.20Q146.54 3.72 147.39 3.72ZM159.57 3.72L161.41 3.72Q162.04 3.72 162.53 3.89Q163.03 4.06 163.44 4.27L163.44 4.27Q164.26 4.69 164.79 5.44Q165.33 6.19 165.56 7.10Q165.80 8.01 165.75 8.98Q165.70 9.95 165.36 10.82Q165.02 11.68 164.39 12.34Q163.76 13.01 162.85 13.29L162.85 13.29Q162.48 13.40 161.86 13.45Q161.24 13.50 160.54 13.52Q159.84 13.54 159.15 13.53Q158.45 13.52 157.93 13.52L157.93 13.52L157.93 5.39Q157.93 5.04 158.02 4.73Q158.10 4.42 158.29 4.20Q158.48 3.98 158.80 3.85Q159.11 3.72 159.57 3.72L159.57 3.72ZM159.80 5.59L159.80 11.70Q160.41 11.70 160.96 11.70Q161.50 11.70 161.96 11.60Q162.41 11.49 162.79 11.23Q163.17 10.96 163.45 10.43L163.45 10.43Q163.67 10.00 163.79 9.44Q163.90 8.88 163.86 8.30Q163.83 7.73 163.64 7.20Q163.45 6.68 163.07 6.30L163.07 6.30Q162.75 5.98 162.30 5.78Q161.85 5.59 161.36 5.59L161.36 5.59L159.80 5.59ZM171.96 3.54L171.96 3.54Q174.03 3.54 175.50 5.04L175.50 5.04Q176.99 6.52 176.99 8.68L176.99 8.68Q176.99 10.82 175.53 12.28L175.53 12.28Q174.06 13.75 171.98 13.75L171.98 13.75Q169.78 13.75 168.34 12.24L168.34 12.24Q166.89 10.74 166.89 8.64L166.89 8.64Q166.89 8.43 166.92 8.18Q166.94 7.94 166.98 7.67Q167.02 7.41 167.09 7.16Q167.16 6.92 167.27 6.71L167.27 6.71Q167.50 6.26 167.90 5.98Q168.31 5.70 168.76 5.60Q169.22 5.50 169.67 5.58Q170.13 5.66 170.46 5.89Q170.80 6.13 170.95 6.55Q171.09 6.96 170.95 7.52L170.95 7.52Q170.69 7.20 170.30 7.11Q169.92 7.03 169.57 7.20Q169.22 7.36 168.98 7.78Q168.74 8.20 168.77 8.89L168.77 8.89Q168.83 10.35 169.92 11.23L169.92 11.23Q170.81 11.97 171.98 11.97L171.98 11.97Q173.28 11.97 174.20 11.02L174.20 11.02Q175.13 10.05 175.13 8.67L175.13 8.67Q175.13 7.28 174.20 6.31L174.20 6.31Q173.25 5.36 171.93 5.36L171.93 5.36Q171.32 5.36 170.81 5.54L170.81 5.54Q170.56 5.32 170.22 5.19Q169.88 5.07 169.49 5.05Q169.11 5.04 168.72 5.14Q168.34 5.24 168.00 5.45L168.00 5.45Q168.59 4.72 169.41 4.23L169.41 4.23Q170.60 3.54 171.96 3.54ZM182.90 3.54L182.90 3.54Q184.97 3.54 186.44 5.04L186.44 5.04Q187.92 6.52 187.92 8.68L187.92 8.68Q187.92 10.82 186.47 12.28L186.47 12.28Q185.00 13.75 182.91 13.75L182.91 13.75Q180.71 13.75 179.27 12.24L179.27 12.24Q177.83 10.74 177.83 8.64L177.83 8.64Q177.83 8.43 177.85 8.18Q177.87 7.94 177.91 7.67Q177.95 7.41 178.02 7.16Q178.09 6.92 178.21 6.71L178.21 6.71Q178.43 6.26 178.84 5.98Q179.24 5.70 179.70 5.60Q180.15 5.50 180.61 5.58Q181.06 5.66 181.40 5.89Q181.73 6.13 181.88 6.55Q182.03 6.96 181.89 7.52L181.89 7.52Q181.62 7.20 181.24 7.11Q180.85 7.03 180.50 7.20Q180.15 7.36 179.91 7.78Q179.68 8.20 179.70 8.89L179.70 8.89Q179.76 10.35 180.85 11.23L180.85 11.23Q181.75 11.97 182.91 11.97L182.91 11.97Q184.21 11.97 185.14 11.02L185.14 11.02Q186.06 10.05 186.06 8.67L186.06 8.67Q186.06 7.28 185.14 6.31L185.14 6.31Q184.18 5.36 182.87 5.36L182.87 5.36Q182.25 5.36 181.75 5.54L181.75 5.54Q181.50 5.32 181.15 5.19Q180.81 5.07 180.43 5.05Q180.04 5.04 179.66 5.14Q179.27 5.24 178.93 5.45L178.93 5.45Q179.52 4.72 180.35 4.23L180.35 4.23Q181.54 3.54 182.90 3.54ZM190.60 3.72L190.60 3.72L192.74 3.72Q193.76 3.72 194.45 4.14Q195.13 4.56 195.50 5.21Q195.86 5.87 195.91 6.66Q195.96 7.45 195.73 8.19Q195.51 8.93 195.01 9.53Q194.52 10.14 193.79 10.42L193.79 10.42L196.24 13.52L193.96 13.52L191.24 10.08Q190.93 9.69 190.97 9.21Q191.00 8.74 191.24 8.39L191.24 8.39Q191.31 8.54 191.51 8.62Q191.70 8.71 191.95 8.75Q192.19 8.79 192.43 8.79Q192.67 8.79 192.84 8.76L192.84 8.76Q193.21 8.69 193.49 8.43Q193.76 8.16 193.89 7.81Q194.03 7.45 194.03 7.05Q194.03 6.65 193.87 6.31Q193.70 5.98 193.36 5.76Q193.02 5.54 192.49 5.54L192.49 5.54L190.90 5.54L190.90 13.52L189.04 13.52L189.04 5.45Q189.04 4.68 189.39 4.20Q189.74 3.72 190.60 3.72Z"></path></g></svg>